{"title":"Craig.Ferguson.2012.04.05.Jeffrey.Dean.Morgan","uid":7170689,"size":242528066,"categoryP":"video","categoryS":"tv_shows","magnet":"?xt=urn:btih:cc7561143a74901d765271381d56fb6cc4fd13b0&amp;dn=Craig.Ferguson.2012.04.05.Jeffrey.Dean.Morgan&amp;tr=udp%3A%2F%2Ftracker.openbittorrent.com%3A80&amp;tr=udp%3A%2F%2Fopen.demonii.com%3A1337&amp;tr=udp%3A%2F%2Ftracker.coppersurfer.tk%3A6969&amp;tr=udp%3A%2F%2Fexodus.desync.com%3A6969","seeders":0,"leechers":0,"uploader":"lobomob","files":1,"time":1333953149,"description":"Converted Craig.Ferguson.2012.04.05.Jeffrey.Dean.Morgan.HDTV.x264-LATE.mp4\n\nFormat                                   : AVI\nFormat/Info                              : Audio Video Interleave\nFile size                                : 231 MiB\nDuration                                 : 40mn 3s\nOverall bit rate                         : 807 Kbps\n\nVideo\nID                                       : 0\nFormat                                   : MPEG-4 Visual\nFormat profile                           : Advanced Simple@L5\nFormat settings, BVOP                    : 2\nFormat settings, QPel                    : No\nFormat settings, GMC                     : No warppoints\nFormat settings, Matrix                  : Default (H.263)\nCodec ID                                 : XVID\nCodec ID/Hint                            : XviD\nDuration                                 : 40mn 3s\nBit rate                                 : 667 Kbps\nWidth                                    : 720 pixels\nHeight                                   : 404 pixels\nDisplay aspect ratio                     : 16:9\nFrame rate                               : 29.970 fps\nColor space                              : YUV\nChroma subsampling                       : 4:2:0\nBit depth                                : 8 bits\nScan type                                : Progressive\nCompression mode                         : Lossy\nBits/(Pixel*Frame)                       : 0.077\nStream size                              : 191 MiB (83%)\nWriting library                          : XviD 1.2.1 (UTC 2008-12-04)\n\nAudio\nID                                       : 1\nFormat                                   : AC-3\nFormat/Info                              : Audio Coding 3\nMode extension                           : CM (complete main)\nCodec ID                                 : 2000\nDuration                                 : 40mn 3s\nSource duration                          : 40mn 3s\nBit rate mode                            : Constant\nBit rate                                 : 128 Kbps\nChannel(s)                               : 2 channels\nChannel positions                        : Front: L R\nSampling rate                            : 48.0 KHz\nBit depth                                : 16 bits\nCompression mode                         : Lossy\nStream size                              : 36.7 MiB (16%)\nAlignment                                : Aligned on interleaves\nInterleave, duration                     : 32 ms (0.96 video frame)\n\n","torrent":{"xt":"urn:btih:cc7561143a74901d765271381d56fb6cc4fd13b0","amp;dn":"Craig.Ferguson.2012.04.05.Jeffrey.Dean.Morgan","amp;tr":["udp%3A%2F%2Ftracker.openbittorrent.com%3A80","udp%3A%2F%2Fopen.demonii.com%3A1337","udp%3A%2F%2Ftracker.coppersurfer.tk%3A6969","udp%3A%2F%2Fexodus.desync.com%3A6969"],"infoHash":"cc7561143a74901d765271381d56fb6cc4fd13b0","infoHashBuffer":{"type":"Buffer","data":[204,117,97,20,58,116,144,29,118,82,113,56,29,86,251,108,196,253,19,176]},"announce":[],"urlList":[]}}